<svg width="237" height="44" viewBox="0 0 237 44" fill="none" xmlns="http://www.w3.org/2000/svg">
<mask id="mask0_1_278" style="mask-type:luminance" maskUnits="userSpaceOnUse" x="0" y="0" width="237" height="44">
<path d="M237 0H0V44H237V0Z" fill="white"/>
</mask>
<g mask="url(#mask0_1_278)">
<path d="M45.444 12.1201C44.1242 13.0988 42.4977 13.5727 40.8588 13.4561C39.2199 13.3394 37.6769 12.6399 36.509 11.4841C33.7382 15.0408 30.3953 18.112 26.617 20.5721C30.9089 23.4301 36.0977 24.6198 41.206 23.9171C41.206 23.9171 36.486 34.6121 26.617 40.3911C31.3031 43.1872 36.7606 44.4115 42.192 43.8851C59.592 42.2851 53.05 26.8031 45.444 12.1201Z" fill="#00D4E1"/>
<path d="M12.027 23.917C17.1353 24.6202 22.3243 23.4304 26.616 20.572C22.8652 18.1312 19.5441 15.0868 16.787 11.562C15.5988 12.7009 14.0414 13.3759 12.3979 13.4643C10.7544 13.5528 9.13361 13.0488 7.83 12.044C0.208003 26.749 -6.387 42.287 11.042 43.885C16.4734 44.4114 21.9309 43.1871 26.617 40.391C16.747 34.612 12.027 23.917 12.027 23.917Z" fill="#0095FF"/>
<path d="M41.206 23.917C36.0977 24.6201 30.9087 23.4303 26.617 20.572C22.3253 23.4303 17.1363 24.6201 12.028 23.917C12.028 23.917 16.748 34.612 26.617 40.391C36.487 34.612 41.206 23.917 41.206 23.917Z" fill="#003CDE"/>
<path d="M45.444 12.1201C46.2899 11.5 46.9782 10.6897 47.4533 9.75467C47.9284 8.81959 48.177 7.78591 48.179 6.73707C48.1573 4.94062 47.4284 3.22512 46.1503 1.96245C44.8723 0.69978 43.1481 -0.00830078 41.3515 -0.00830078C39.5549 -0.00830078 37.8307 0.69978 36.5527 1.96245C35.2746 3.22512 34.5457 4.94062 34.524 6.73707C34.524 7.62034 34.6995 8.49481 35.0403 9.30971C35.381 10.1246 35.8803 10.8637 36.509 11.4841C38.3254 9.24122 39.9457 6.84641 41.352 4.32607C42.661 6.84007 44.07 9.46707 45.444 12.1201Z" fill="#00D4E1"/>
<path d="M41.351 13.4742C42.8252 13.4753 44.2604 13.0004 45.443 12.1202C44.069 9.46717 42.66 6.84017 41.351 4.32617C39.9448 6.84655 38.3245 9.24136 36.508 11.4842C37.7953 12.7625 39.5369 13.4781 41.351 13.4742Z" fill="#00D4E1"/>
<path d="M16.787 11.5611C17.44 10.9386 17.96 10.1902 18.3154 9.36103C18.6709 8.53187 18.8545 7.63921 18.855 6.73707C18.8333 4.94062 18.1044 3.22512 16.8263 1.96245C15.5483 0.69978 13.8241 -0.00830078 12.0275 -0.00830078C10.2309 -0.00830078 8.50672 0.69978 7.22868 1.96245C5.95064 3.22512 5.22175 4.94062 5.2 6.73707C5.20157 7.76405 5.43963 8.77688 5.89571 9.69703C6.3518 10.6172 7.01367 11.4199 7.83 12.0431C9.192 9.41607 10.586 6.81507 11.882 4.32607C13.3044 6.87551 14.9456 9.29661 16.787 11.5621" fill="#0095FF"/>
<path d="M16.787 11.561C14.9456 9.29549 13.3044 6.8744 11.882 4.32495C10.582 6.81395 9.192 9.41495 7.83 12.042C9.13361 13.0468 10.7544 13.5507 12.3979 13.4623C14.0414 13.3738 15.5988 12.6999 16.787 11.561Z" fill="#0095FF"/>
<path d="M90.606 10.0691V34.0391H86V20.9741C86 19.9321 86.0297 18.7498 86.089 17.4271L86.178 15.6361L86.267 13.8621H86.125L85.573 15.5301L85.036 17.2001C84.538 18.6988 84.1523 19.8051 83.879 20.5191L78.54 34.0391H74.34L68.947 20.6231C68.649 19.8858 68.2577 18.7781 67.773 17.3001L67.221 15.6321L66.669 13.9811H66.527L66.616 15.7191L66.705 17.4751C66.7763 18.8331 66.812 19.9978 66.812 20.9691V34.0391H62.2V10.0691H69.71L74.053 21.1691C74.349 21.9418 74.7403 23.0481 75.227 24.4881L75.761 26.1561L76.313 27.8071H76.473L76.989 26.1561L77.523 24.5051C77.9617 23.1118 78.3413 22.0118 78.662 21.2051L82.933 10.0711L90.606 10.0691Z" fill="white"/>
<path d="M108.758 17.251L104.291 35.092C103.662 37.6206 102.882 39.3206 101.951 40.192C100.676 41.1748 99.0783 41.6418 97.475 41.5C97.0123 41.5 96.532 41.4766 96.034 41.43V38.464C96.3893 38.4873 96.686 38.499 96.924 38.499C98.6573 38.499 99.755 37.0123 100.217 34.039H98.134L92.564 17.251H96.942L99.078 24.363L100.146 27.927C100.205 28.1616 100.372 28.7586 100.646 29.718L101.162 31.492H101.251L101.624 29.718C101.814 28.8046 101.939 28.2076 101.998 27.927L102.835 24.363L104.472 17.251H108.758Z" fill="white"/>
<path d="M114.666 10.0691H110.591V34.0391H114.666V10.0691Z" fill="white"/>
<path d="M122.907 22.1151H118.743C118.743 20.1018 119.218 18.7555 120.167 18.0761C121.116 17.3968 122.997 17.0571 125.808 17.0571C128.869 17.0571 130.94 17.4728 132.019 18.3041C133.098 19.1355 133.638 20.7218 133.639 23.0631V34.0391H129.564L129.764 31.7391L129.657 31.7221C128.874 33.3961 127.064 34.2331 124.229 34.2331C120.112 34.2331 118.053 32.5065 118.053 29.0531C118.053 25.5645 120.159 23.8201 124.371 23.8201C127.183 23.8201 128.891 24.4581 129.496 25.7341H129.567V23.0111C129.684 22.0846 129.435 21.1489 128.873 20.4031C128.024 19.8729 127.02 19.6469 126.026 19.7621C123.949 19.7621 122.911 20.5465 122.911 22.1151M125.634 26.5231C123.332 26.5231 122.181 27.3075 122.181 28.8761C122.125 29.2639 122.161 29.6594 122.284 30.0311C122.408 30.4029 122.616 30.7408 122.893 31.0181C123.826 31.4516 124.859 31.6274 125.883 31.5271C128.363 31.5271 129.603 30.7018 129.603 29.0511C129.603 27.3658 128.28 26.5228 125.634 26.5221" fill="white"/>
<path d="M151.9 21.8691H147.91C147.886 21.7284 147.868 21.6231 147.857 21.5531C147.774 20.7451 147.54 20.2417 147.157 20.0431C146.25 19.7742 145.301 19.6726 144.357 19.7431C142.233 19.7431 141.171 20.4221 141.171 21.7801C141.171 22.7054 141.358 23.2557 141.731 23.4311C142.977 23.7216 144.252 23.8633 145.531 23.8531C148.438 23.9937 150.33 24.3741 151.208 24.9941C152.086 25.6141 152.525 26.8844 152.525 28.8051C152.525 30.8537 151.941 32.2731 150.772 33.0631C149.603 33.8531 147.506 34.2481 144.481 34.2481C141.574 34.2481 139.587 33.8911 138.519 33.1771C137.451 32.4631 136.918 31.1297 136.919 29.1771V28.7551H141.155C141.105 28.9393 141.069 29.1272 141.048 29.3171C140.882 30.8037 142.045 31.5471 144.536 31.5471C147.11 31.5471 148.397 30.8094 148.398 29.3341C148.398 27.9181 147.591 27.2097 145.978 27.2091C142.335 27.2091 139.935 26.8694 138.778 26.1901C137.621 25.5107 137.042 24.1001 137.043 21.9581C137.043 20.0387 137.571 18.7387 138.627 18.0581C139.683 17.3774 141.712 17.0377 144.713 17.0391C147.548 17.0391 149.456 17.3667 150.435 18.0221C151.414 18.6774 151.904 19.9594 151.903 21.8681" fill="white"/>
<path d="M166.7 17.2512V20.3072H160.151V28.7362C160.151 30.2935 160.751 31.0718 161.951 31.0712C163.268 31.0712 163.927 30.1288 163.927 28.2442V27.5772H167.397V28.4202C167.397 29.1928 167.373 29.8542 167.326 30.4042C167.101 32.9682 165.167 34.2502 161.526 34.2502C157.895 34.2502 156.08 32.6055 156.08 29.3162V20.3072H153.873V17.2512H156.08V13.4932H160.155V17.2512H166.7Z" fill="white"/>
<path d="M193.47 17.251L189.661 34.039H183.646L181.937 26.523C181.64 25.2237 181.421 24.2344 181.278 23.555L180.978 22.08L180.678 20.605H180.553L180.253 22.08L179.953 23.573C179.82 24.2284 179.606 25.2117 179.312 26.523L177.6 34.039H171.5L167.7 17.251H171.81L173.447 25.03C173.647 26.002 173.849 27.044 174.052 28.156L174.336 29.719L174.636 31.282H174.707L175.063 29.719L175.401 28.156C175.579 27.372 175.822 26.336 176.131 25.048L177.982 17.248H183.182L185.033 25.048C185.377 26.5147 185.62 27.5507 185.763 28.156L186.101 29.719L186.439 31.282H186.528L186.828 29.719L187.113 28.156C187.313 27.0794 187.52 26.0374 187.735 25.03L189.39 17.251H193.47Z" fill="white"/>
<path d="M199.609 13.4231H195.534V10.0691H199.609V13.4231ZM199.609 34.0391H195.534V17.2511H199.609V34.0391Z" fill="white"/>
<path d="M217.816 21.8691H213.829C213.805 21.7284 213.787 21.6231 213.776 21.5531C213.693 20.7451 213.459 20.2417 213.076 20.0431C212.169 19.7743 211.22 19.6726 210.276 19.7431C208.152 19.7431 207.09 20.4221 207.09 21.7801C207.09 22.7054 207.277 23.2557 207.65 23.4311C208.895 23.7217 210.171 23.8633 211.45 23.8531C214.357 23.9937 216.249 24.3741 217.127 24.9941C218.005 25.6141 218.444 26.8844 218.444 28.8051C218.444 30.8537 217.86 32.2731 216.691 33.0631C215.522 33.8531 213.425 34.2481 210.4 34.2481C207.493 34.2481 205.506 33.8911 204.438 33.1771C203.37 32.4631 202.837 31.1297 202.838 29.1771V28.7551H207.074C207.024 28.9393 206.988 29.1272 206.967 29.3171C206.801 30.8037 207.964 31.5471 210.455 31.5471C213.029 31.5471 214.316 30.8094 214.316 29.3341C214.316 27.9181 213.509 27.2097 211.896 27.2091C208.253 27.2091 205.853 26.8694 204.696 26.1901C203.539 25.5107 202.96 24.1001 202.961 21.9581C202.961 20.0387 203.489 18.7387 204.545 18.0581C205.601 17.3774 207.63 17.0377 210.632 17.0391C213.467 17.0391 215.374 17.3667 216.353 18.0221C217.332 18.6774 217.821 19.9594 217.821 21.8681" fill="white"/>
<path d="M225.717 10.0691V20.0261L225.806 20.0441C226.565 18.0541 228.309 17.0591 231.038 17.0591C235.013 17.0591 237 18.9144 237 22.6251V34.0391H232.925V23.1871C232.925 21.2204 231.911 20.2371 229.882 20.2371C227.105 20.2371 225.717 21.6594 225.718 24.5041V34.0391H221.643V10.0691H225.717Z" fill="white"/>
</g>
</svg>
