<svg width="190" height="23" viewBox="0 0 190 23" fill="none" xmlns="http://www.w3.org/2000/svg">
<path d="M14.745 4.81593C15.641 4.81593 16.439 5.00494 17.139 5.38294C17.839 5.74694 18.392 6.29994 18.798 7.04194C19.204 7.78394 19.407 8.68694 19.407 9.75094V16.5339H17.517V10.0239C17.517 8.87594 17.23 8.00094 16.656 7.39893C16.096 6.78293 15.333 6.47493 14.367 6.47493C13.373 6.47493 12.582 6.79693 11.994 7.44093C11.406 8.07094 11.112 8.98794 11.112 10.1919V16.5339H9.222V10.0239C9.222 8.87594 8.935 8.00094 8.361 7.39893C7.801 6.78293 7.038 6.47493 6.072 6.47493C5.078 6.47493 4.287 6.79693 3.699 7.44093C3.111 8.07094 2.817 8.98794 2.817 10.1919V16.5339H0.906002V5.02593H2.817V6.68494C3.195 6.08294 3.699 5.62094 4.329 5.29893C4.973 4.97693 5.68 4.81593 6.45 4.81593C7.416 4.81593 8.27 5.03294 9.012 5.46694C9.754 5.90094 10.307 6.53794 10.671 7.37794C10.993 6.56594 11.525 5.93594 12.267 5.48794C13.009 5.03993 13.835 4.81593 14.745 4.81593ZM27.5607 16.7229C26.4827 16.7229 25.5027 16.4779 24.6207 15.9879C23.7527 15.4979 23.0667 14.8049 22.5627 13.9089C22.0727 12.9989 21.8277 11.9489 21.8277 10.7589C21.8277 9.58294 22.0797 8.54694 22.5837 7.65094C23.1017 6.74093 23.8017 6.04793 24.6837 5.57194C25.5657 5.08193 26.5527 4.83693 27.6447 4.83693C28.7367 4.83693 29.7237 5.08193 30.6057 5.57194C31.4877 6.04793 32.1807 6.73393 32.6847 7.62994C33.2027 8.52594 33.4617 9.56894 33.4617 10.7589C33.4617 11.9489 33.1957 12.9989 32.6637 13.9089C32.1457 14.8049 31.4387 15.4979 30.5427 15.9879C29.6467 16.4779 28.6527 16.7229 27.5607 16.7229ZM27.5607 15.0429C28.2467 15.0429 28.8907 14.8819 29.4927 14.5599C30.0947 14.2379 30.5777 13.7549 30.9417 13.1109C31.3197 12.4669 31.5087 11.6829 31.5087 10.7589C31.5087 9.83494 31.3267 9.05094 30.9627 8.40694C30.5987 7.76293 30.1227 7.28694 29.5347 6.97894C28.9467 6.65694 28.3097 6.49594 27.6237 6.49594C26.9237 6.49594 26.2797 6.65694 25.6917 6.97894C25.1177 7.28694 24.6557 7.76293 24.3057 8.40694C23.9557 9.05094 23.7807 9.83494 23.7807 10.7589C23.7807 11.6969 23.9487 12.4879 24.2847 13.1319C24.6347 13.7759 25.0967 14.2589 25.6707 14.5809C26.2447 14.8889 26.8747 15.0429 27.5607 15.0429ZM40.0484 16.7229C39.1664 16.7229 38.3754 16.5759 37.6754 16.2819C36.9754 15.9739 36.4224 15.5539 36.0164 15.0219C35.6104 14.4759 35.3864 13.8529 35.3444 13.1529H37.3184C37.3744 13.7269 37.6404 14.1959 38.1164 14.5599C38.6064 14.9239 39.2434 15.1059 40.0274 15.1059C40.7554 15.1059 41.3294 14.9449 41.7494 14.6229C42.1694 14.3009 42.3794 13.8949 42.3794 13.4049C42.3794 12.9009 42.1554 12.5299 41.7074 12.2919C41.2594 12.0399 40.5664 11.7949 39.6284 11.5569C38.7744 11.3329 38.0744 11.1089 37.5284 10.8849C36.9964 10.6469 36.5344 10.3039 36.1424 9.85594C35.7644 9.39394 35.5754 8.79194 35.5754 8.04994C35.5754 7.46194 35.7504 6.92294 36.1004 6.43293C36.4504 5.94293 36.9474 5.55793 37.5914 5.27794C38.2354 4.98393 38.9704 4.83693 39.7964 4.83693C41.0704 4.83693 42.0994 5.15893 42.8834 5.80293C43.6674 6.44693 44.0874 7.32893 44.1434 8.44894H42.2324C42.1904 7.84693 41.9454 7.36393 41.4974 6.99994C41.0634 6.63594 40.4754 6.45394 39.7334 6.45394C39.0474 6.45394 38.5014 6.60094 38.0954 6.89494C37.6894 7.18894 37.4864 7.57394 37.4864 8.04994C37.4864 8.42794 37.6054 8.74294 37.8434 8.99493C38.0954 9.23294 38.4034 9.42894 38.7674 9.58293C39.1454 9.72294 39.6634 9.88394 40.3214 10.0659C41.1474 10.2899 41.8194 10.5139 42.3374 10.7379C42.8554 10.9479 43.2964 11.2699 43.6604 11.7039C44.0384 12.1379 44.2344 12.7049 44.2484 13.4049C44.2484 14.0349 44.0734 14.6019 43.7234 15.1059C43.3734 15.6099 42.8764 16.0089 42.2324 16.3029C41.6024 16.5829 40.8744 16.7229 40.0484 16.7229ZM49.277 6.60094V13.3839C49.277 13.9439 49.396 14.3429 49.634 14.5809C49.872 14.8049 50.285 14.9169 50.873 14.9169H52.28V16.5339H50.558C49.494 16.5339 48.696 16.2889 48.164 15.7989C47.632 15.3089 47.366 14.5039 47.366 13.3839V6.60094H45.875V5.02593H47.366V2.12793H49.277V5.02593H52.28V6.60094H49.277ZM59.4801 10.7379C59.4801 9.56194 59.7181 8.53294 60.1941 7.65094C60.6701 6.75494 61.3211 6.06194 62.1471 5.57194C62.9871 5.08193 63.9181 4.83693 64.9401 4.83693C65.9481 4.83693 66.8231 5.05393 67.5651 5.48794C68.3071 5.92193 68.8601 6.46793 69.2241 7.12594V5.02593H71.1561V16.5339H69.2241V14.3919C68.8461 15.0639 68.2791 15.6239 67.5231 16.0719C66.7811 16.5059 65.9131 16.7229 64.9191 16.7229C63.8971 16.7229 62.9731 16.4709 62.1471 15.9669C61.3211 15.4629 60.6701 14.7559 60.1941 13.8459C59.7181 12.9359 59.4801 11.8999 59.4801 10.7379ZM69.2241 10.7589C69.2241 9.89094 69.0491 9.13494 68.6991 8.49094C68.3491 7.84694 67.8731 7.35694 67.2711 7.02094C66.6831 6.67094 66.0321 6.49594 65.3181 6.49594C64.6041 6.49594 63.9531 6.66394 63.3651 6.99994C62.7771 7.33594 62.3081 7.82594 61.9581 8.46994C61.6081 9.11394 61.4331 9.86993 61.4331 10.7379C61.4331 11.6199 61.6081 12.3899 61.9581 13.0479C62.3081 13.6919 62.7771 14.1889 63.3651 14.5389C63.9531 14.8749 64.6041 15.0429 65.3181 15.0429C66.0321 15.0429 66.6831 14.8749 67.2711 14.5389C67.8731 14.1889 68.3491 13.6919 68.6991 13.0479C69.0491 12.3899 69.2241 11.6269 69.2241 10.7589ZM79.0685 6.60094H76.6535V16.5339H74.7425V6.60094H73.2515V5.02593H74.7425V4.20694C74.7425 2.91894 75.0715 1.98094 75.7295 1.39294C76.4015 0.790935 77.4725 0.489934 78.9425 0.489934V2.08594C78.1025 2.08594 77.5075 2.25393 77.1575 2.58993C76.8215 2.91193 76.6535 3.45094 76.6535 4.20694V5.02593H79.0685V6.60094ZM83.6276 6.60094V13.3839C83.6276 13.9439 83.7466 14.3429 83.9846 14.5809C84.2226 14.8049 84.6356 14.9169 85.2236 14.9169H86.6306V16.5339H84.9086C83.8446 16.5339 83.0466 16.2889 82.5146 15.7989C81.9826 15.3089 81.7166 14.5039 81.7166 13.3839V6.60094H80.2256V5.02593H81.7166V2.12793H83.6276V5.02593H86.6306V6.60094H83.6276ZM99.446 10.3389C99.446 10.7029 99.425 11.0879 99.383 11.4939H90.185C90.255 12.6279 90.64 13.5169 91.34 14.1609C92.054 14.7909 92.915 15.1059 93.923 15.1059C94.749 15.1059 95.435 14.9169 95.981 14.5389C96.541 14.1469 96.933 13.6289 97.157 12.9849H99.215C98.907 14.0909 98.291 14.9939 97.367 15.6939C96.443 16.3799 95.295 16.7229 93.923 16.7229C92.831 16.7229 91.851 16.4779 90.983 15.9879C90.129 15.4979 89.457 14.8049 88.967 13.9089C88.477 12.9989 88.232 11.9489 88.232 10.7589C88.232 9.56894 88.47 8.52594 88.946 7.62994C89.422 6.73393 90.087 6.04793 90.941 5.57194C91.809 5.08193 92.803 4.83693 93.923 4.83693C95.015 4.83693 95.981 5.07493 96.821 5.55094C97.661 6.02694 98.305 6.68494 98.753 7.52494C99.215 8.35094 99.446 9.28894 99.446 10.3389ZM97.472 9.93994C97.472 9.21194 97.311 8.58893 96.989 8.07093C96.667 7.53894 96.226 7.13994 95.666 6.87394C95.12 6.59394 94.511 6.45394 93.839 6.45394C92.873 6.45394 92.047 6.76194 91.361 7.37794C90.689 7.99394 90.304 8.84794 90.206 9.93994H97.472ZM103.88 6.89494C104.216 6.23693 104.692 5.72593 105.308 5.36194C105.938 4.99794 106.701 4.81593 107.597 4.81593V6.78994H107.093C104.951 6.78994 103.88 7.95194 103.88 10.2759V16.5339H101.969V5.02593H103.88V6.89494ZM125.313 5.02593L118.383 21.9519H116.409L118.677 16.4079L114.036 5.02593H116.157L119.769 14.3499L123.339 5.02593H125.313ZM132.253 16.7229C131.175 16.7229 130.195 16.4779 129.313 15.9879C128.445 15.4979 127.759 14.8049 127.255 13.9089C126.765 12.9989 126.52 11.9489 126.52 10.7589C126.52 9.58294 126.772 8.54694 127.276 7.65094C127.794 6.74093 128.494 6.04793 129.376 5.57194C130.258 5.08193 131.245 4.83693 132.337 4.83693C133.429 4.83693 134.416 5.08193 135.298 5.57194C136.18 6.04793 136.873 6.73393 137.377 7.62994C137.895 8.52594 138.154 9.56894 138.154 10.7589C138.154 11.9489 137.888 12.9989 137.356 13.9089C136.838 14.8049 136.131 15.4979 135.235 15.9879C134.339 16.4779 133.345 16.7229 132.253 16.7229ZM132.253 15.0429C132.939 15.0429 133.583 14.8819 134.185 14.5599C134.787 14.2379 135.27 13.7549 135.634 13.1109C136.012 12.4669 136.201 11.6829 136.201 10.7589C136.201 9.83494 136.019 9.05094 135.655 8.40694C135.291 7.76293 134.815 7.28694 134.227 6.97894C133.639 6.65694 133.002 6.49594 132.316 6.49594C131.616 6.49594 130.972 6.65694 130.384 6.97894C129.81 7.28694 129.348 7.76293 128.998 8.40694C128.648 9.05094 128.473 9.83494 128.473 10.7589C128.473 11.6969 128.641 12.4879 128.977 13.1319C129.327 13.7759 129.789 14.2589 130.363 14.5809C130.937 14.8889 131.567 15.0429 132.253 15.0429ZM150.873 5.02593V16.5339H148.962V14.8329C148.598 15.4209 148.087 15.8829 147.429 16.2189C146.785 16.5409 146.071 16.7019 145.287 16.7019C144.391 16.7019 143.586 16.5199 142.872 16.1559C142.158 15.7779 141.591 15.2179 141.171 14.4759C140.765 13.7339 140.562 12.8309 140.562 11.7669V5.02593H142.452V11.5149C142.452 12.6489 142.739 13.5239 143.313 14.1399C143.887 14.7419 144.671 15.0429 145.665 15.0429C146.687 15.0429 147.492 14.7279 148.08 14.0979C148.668 13.4679 148.962 12.5509 148.962 11.3469V5.02593H150.873ZM164.444 4.83693C165.438 4.83693 166.306 5.05393 167.048 5.48794C167.804 5.92193 168.364 6.46793 168.728 7.12594V5.02593H170.66V16.7859C170.66 17.8359 170.436 18.7669 169.988 19.5789C169.54 20.4049 168.896 21.0489 168.056 21.5109C167.23 21.9729 166.264 22.2039 165.158 22.2039C163.646 22.2039 162.386 21.8469 161.378 21.1329C160.37 20.4189 159.775 19.4459 159.593 18.2139H161.483C161.693 18.9139 162.127 19.4739 162.785 19.8939C163.443 20.3279 164.234 20.5449 165.158 20.5449C166.208 20.5449 167.062 20.2159 167.72 19.5579C168.392 18.8999 168.728 17.9759 168.728 16.7859V14.3709C168.35 15.0429 167.79 15.6029 167.048 16.0509C166.306 16.4989 165.438 16.7229 164.444 16.7229C163.422 16.7229 162.491 16.4709 161.651 15.9669C160.825 15.4629 160.174 14.7559 159.698 13.8459C159.222 12.9359 158.984 11.8999 158.984 10.7379C158.984 9.56194 159.222 8.53294 159.698 7.65094C160.174 6.75494 160.825 6.06194 161.651 5.57194C162.491 5.08193 163.422 4.83693 164.444 4.83693ZM168.728 10.7589C168.728 9.89094 168.553 9.13494 168.203 8.49094C167.853 7.84694 167.377 7.35694 166.775 7.02094C166.187 6.67094 165.536 6.49594 164.822 6.49594C164.108 6.49594 163.457 6.66394 162.869 6.99994C162.281 7.33594 161.812 7.82594 161.462 8.46994C161.112 9.11394 160.937 9.86993 160.937 10.7379C160.937 11.6199 161.112 12.3899 161.462 13.0479C161.812 13.6919 162.281 14.1889 162.869 14.5389C163.457 14.8749 164.108 15.0429 164.822 15.0429C165.536 15.0429 166.187 14.8749 166.775 14.5389C167.377 14.1889 167.853 13.6919 168.203 13.0479C168.553 12.3899 168.728 11.6269 168.728 10.7589ZM178.908 16.7229C177.83 16.7229 176.85 16.4779 175.968 15.9879C175.1 15.4979 174.414 14.8049 173.91 13.9089C173.42 12.9989 173.175 11.9489 173.175 10.7589C173.175 9.58294 173.427 8.54694 173.931 7.65094C174.449 6.74093 175.149 6.04793 176.031 5.57194C176.913 5.08193 177.9 4.83693 178.992 4.83693C180.084 4.83693 181.071 5.08193 181.953 5.57194C182.835 6.04793 183.528 6.73393 184.032 7.62994C184.55 8.52594 184.809 9.56894 184.809 10.7589C184.809 11.9489 184.543 12.9989 184.011 13.9089C183.493 14.8049 182.786 15.4979 181.89 15.9879C180.994 16.4779 180 16.7229 178.908 16.7229ZM178.908 15.0429C179.594 15.0429 180.238 14.8819 180.84 14.5599C181.442 14.2379 181.925 13.7549 182.289 13.1109C182.667 12.4669 182.856 11.6829 182.856 10.7589C182.856 9.83494 182.674 9.05094 182.31 8.40694C181.946 7.76293 181.47 7.28694 180.882 6.97894C180.294 6.65694 179.657 6.49594 178.971 6.49594C178.271 6.49594 177.627 6.65694 177.039 6.97894C176.465 7.28694 176.003 7.76293 175.653 8.40694C175.303 9.05094 175.128 9.83494 175.128 10.7589C175.128 11.6969 175.296 12.4879 175.632 13.1319C175.982 13.7759 176.444 14.2589 177.018 14.5809C177.592 14.8889 178.222 15.0429 178.908 15.0429ZM187.931 16.6599C187.567 16.6599 187.259 16.5339 187.007 16.2819C186.755 16.0299 186.629 15.7219 186.629 15.3579C186.629 14.9939 186.755 14.6859 187.007 14.4339C187.259 14.1819 187.567 14.0559 187.931 14.0559C188.281 14.0559 188.575 14.1819 188.813 14.4339C189.065 14.6859 189.191 14.9939 189.191 15.3579C189.191 15.7219 189.065 16.0299 188.813 16.2819C188.575 16.5339 188.281 16.6599 187.931 16.6599Z" fill="#21275A"/>
</svg>
