<svg width="29" height="25" viewBox="0 0 29 25" fill="none" xmlns="http://www.w3.org/2000/svg">
<path d="M26.269 3.57102H2.73097C2.26461 3.56365 1.82027 3.37137 1.49566 3.03644C1.17105 2.70152 0.992749 2.25138 0.999967 1.78502C0.992749 1.31866 1.17105 0.868527 1.49566 0.533604C1.82027 0.19868 2.26461 0.00639208 2.73097 -0.000976562H26.269C26.7353 0.00639208 27.1797 0.19868 27.5043 0.533604C27.8289 0.868527 28.0072 1.31866 28 1.78502C28.0072 2.25138 27.8289 2.70152 27.5043 3.03644C27.1797 3.37137 26.7353 3.56365 26.269 3.57102Z" fill="#DF5E60"/>
<path d="M16.5769 14.2851H2.73089C2.27 14.2662 1.83428 14.0698 1.51487 13.7371C1.19545 13.4043 1.01709 12.9609 1.01709 12.4996C1.01709 12.0383 1.19545 11.5949 1.51487 11.2622C1.83428 10.9294 2.27 10.733 2.73089 10.7141H16.5769C17.0378 10.733 17.4735 10.9294 17.7929 11.2622C18.1123 11.5949 18.2907 12.0383 18.2907 12.4996C18.2907 12.9609 18.1123 13.4043 17.7929 13.7371C17.4735 14.0698 17.0378 14.2662 16.5769 14.2851Z" fill="#DF5E60"/>
<path d="M26.2689 14.2851H23.4999C23.0391 14.2662 22.6033 14.0698 22.2839 13.7371C21.9645 13.4043 21.7861 12.9609 21.7861 12.4996C21.7861 12.0383 21.9645 11.5949 22.2839 11.2622C22.6033 10.9294 23.0391 10.733 23.4999 10.7141H26.2689C26.7298 10.733 27.1655 10.9294 27.4849 11.2622C27.8044 11.5949 27.9827 12.0383 27.9827 12.4996C27.9827 12.9609 27.8044 13.4043 27.4849 13.7371C27.1655 14.0698 26.7298 14.2662 26.2689 14.2851Z" fill="#DF5E60"/>
<path d="M26.2689 25H2.73089C2.27 24.9811 1.83428 24.7847 1.51487 24.4519C1.19545 24.1191 1.01709 23.6757 1.01709 23.2145C1.01709 22.7532 1.19545 22.3098 1.51487 21.977C1.83428 21.6442 2.27 21.4479 2.73089 21.429H26.2689C26.7298 21.4479 27.1655 21.6442 27.4849 21.977C27.8043 22.3098 27.9827 22.7532 27.9827 23.2145C27.9827 23.6757 27.8043 24.1191 27.4849 24.4519C27.1655 24.7847 26.7298 24.9811 26.2689 25Z" fill="#DF5E60"/>
<path d="M2.73108 25C2.26485 24.989 1.82139 24.796 1.49554 24.4624C1.1697 24.1287 0.987305 23.6809 0.987305 23.2145C0.987305 22.7481 1.1697 22.3003 1.49554 21.9666C1.82139 21.633 2.26485 21.44 2.73108 21.429H26.2701C26.7363 21.44 27.1797 21.633 27.5056 21.9666C27.8314 22.3003 28.0138 22.7481 28.0138 23.2145C28.0138 23.6809 27.8314 24.1287 27.5056 24.4624C27.1797 24.796 26.7363 24.989 26.2701 25H2.73108ZM23.5001 14.286C23.0338 14.275 22.5904 14.082 22.2646 13.7484C21.9387 13.4147 21.7563 12.9669 21.7563 12.5005C21.7563 12.0341 21.9387 11.5863 22.2646 11.2526C22.5904 10.919 23.0338 10.726 23.5001 10.715H26.269C26.7353 10.726 27.1787 10.919 27.5046 11.2526C27.8304 11.5863 28.0128 12.0341 28.0128 12.5005C28.0128 12.9669 27.8304 13.4147 27.5046 13.7484C27.1787 14.082 26.7353 14.275 26.269 14.286H23.5001ZM2.73108 14.286C2.26485 14.275 1.82139 14.082 1.49554 13.7484C1.1697 13.4147 0.987305 12.9669 0.987305 12.5005C0.987305 12.0341 1.1697 11.5863 1.49554 11.2526C1.82139 10.919 2.26485 10.726 2.73108 10.715H16.5771C17.0433 10.726 17.4867 10.919 17.8126 11.2526C18.1384 11.5863 18.3208 12.0341 18.3208 12.5005C18.3208 12.9669 18.1384 13.4147 17.8126 13.7484C17.4867 14.082 17.0433 14.275 16.5771 14.286H2.73108ZM2.73108 3.572C2.26775 3.55649 1.82857 3.36153 1.50629 3.02829C1.18401 2.69504 1.00385 2.24959 1.00385 1.786C1.00385 1.32241 1.18401 0.876959 1.50629 0.543713C1.82857 0.210466 2.26775 0.015507 2.73108 0H26.2701C26.7334 0.015507 27.1726 0.210466 27.4949 0.543713C27.8172 0.876959 27.9973 1.32241 27.9973 1.786C27.9973 2.24959 27.8172 2.69504 27.4949 3.02829C27.1726 3.36153 26.7334 3.55649 26.2701 3.572H2.73108Z" fill="white"/>
</svg>
